<?xml version="1.0" encoding="UTF-8" standalone="no"?>
<svg
   xmlns:dc="http://purl.org/dc/elements/1.1/"
   xmlns:cc="http://creativecommons.org/ns#"
   xmlns:rdf="http://www.w3.org/1999/02/22-rdf-syntax-ns#"
   xmlns:svg="http://www.w3.org/2000/svg"
   xmlns="http://www.w3.org/2000/svg"
   xmlns:sodipodi="http://sodipodi.sourceforge.net/DTD/sodipodi-0.dtd"
   xmlns:inkscape="http://www.inkscape.org/namespaces/inkscape"
   version="1.1"
   id="svg2"
   xml:space="preserve"
   width="768"
   height="384"
   viewBox="0 0 768 384"
   sodipodi:docname="shaunak.ai"><metadata
     id="metadata8"><rdf:RDF><cc:Work
         rdf:about=""><dc:format>image/svg+xml</dc:format><dc:type
           rdf:resource="http://purl.org/dc/dcmitype/StillImage" /></cc:Work></rdf:RDF></metadata><defs
     id="defs6"><linearGradient
       x1="0"
       y1="0"
       x2="1"
       y2="0"
       gradientUnits="userSpaceOnUse"
       gradientTransform="matrix(-139.62885,139.62885,139.62885,139.62885,149.41422,135.61644)"
       spreadMethod="pad"
       id="linearGradient30"><stop
         style="stop-opacity:1;stop-color:#21b6c5"
         offset="0"
         id="stop26" /><stop
         style="stop-opacity:1;stop-color:#11ea9e"
         offset="1"
         id="stop28" /></linearGradient><linearGradient
       x1="0"
       y1="0"
       x2="1"
       y2="0"
       gradientUnits="userSpaceOnUse"
       gradientTransform="matrix(139.62878,-139.62878,-139.62878,-139.62878,430.91208,145.66486)"
       spreadMethod="pad"
       id="linearGradient50"><stop
         style="stop-opacity:1;stop-color:#21b6c5"
         offset="0"
         id="stop46" /><stop
         style="stop-opacity:1;stop-color:#11ea9e"
         offset="1"
         id="stop48" /></linearGradient><clipPath
       clipPathUnits="userSpaceOnUse"
       id="clipPath60"><path
         d="M 0,0 H 576 V 288 H 0 Z"
         id="path58" /></clipPath></defs><sodipodi:namedview
     pagecolor="#ffffff"
     bordercolor="#666666"
     borderopacity="1"
     objecttolerance="10"
     gridtolerance="10"
     guidetolerance="10"
     inkscape:pageopacity="0"
     inkscape:pageshadow="2"
     inkscape:window-width="640"
     inkscape:window-height="480"
     id="namedview4" /><g
     id="g10"
     inkscape:groupmode="layer"
     inkscape:label="shaunak"
     transform="matrix(1.3333333,0,0,-1.3333333,0,384)"><path
       d="M 0,0 H 576 V 288 H 0 Z"
       style="fill:#21b6c5;fill-opacity:1;fill-rule:nonzero;stroke:none"
       id="path12" /><g
       id="g14"><g
         id="g16"><g
           id="g22"><g
             id="g24"><path
               d="m 38.948,246.083 c -31.306,-31.308 -31.306,-82.066 0,-113.374 v 0 c 31.308,-31.307 82.066,-31.307 113.373,0 v 0 c 31.308,31.308 31.308,82.066 0,113.374 v 0 c -15.653,15.653 -36.17,23.479 -56.686,23.479 v 0 c -20.517,0 -41.033,-7.826 -56.687,-23.479"
               style="fill:url(#linearGradient30);stroke:none"
               id="path32" /></g></g></g></g><g
       id="g34"><g
         id="g36"><g
           id="g42"><g
             id="g44"><path
               d="m 428.005,148.572 c -31.307,-31.307 -31.307,-82.066 0,-113.373 v 0 c 31.307,-31.307 82.066,-31.307 113.373,0 v 0 c 31.306,31.307 31.306,82.066 0,113.373 v 0 c -15.653,15.653 -36.17,23.48 -56.686,23.48 v 0 c -20.517,0 -41.033,-7.827 -56.687,-23.48"
               style="fill:url(#linearGradient50);stroke:none"
               id="path52" /></g></g></g></g><g
       id="g54"><g
         id="g56"
         clip-path="url(#clipPath60)"><g
           id="g62"
           transform="translate(118.2456,206.0117)"><path
             d="m 0,0 c -0.92,0 -1.841,0.352 -2.543,1.054 -1.405,1.404 -1.405,3.683 0,5.087 l 92.842,92.842 c 1.406,1.405 3.683,1.404 5.088,0 1.405,-1.404 1.405,-3.683 0,-5.087 L 2.544,1.054 C 1.841,0.352 0.92,0 0,0"
             style="fill:#ffffff;fill-opacity:1;fill-rule:nonzero;stroke:none"
             id="path64" /></g><g
           id="g66"
           transform="translate(-32.1519,19.6406)"><path
             d="m 0,0 c -0.132,0 -0.263,0.051 -0.363,0.15 -0.201,0.202 -0.201,0.527 0,0.727 l 132.925,132.927 c 0.201,0.201 0.526,0.201 0.727,0 0.201,-0.2 0.201,-0.526 0,-0.726 L 0.363,0.15 C 0.263,0.051 0.131,0 0,0"
             style="fill:#ffffff;fill-opacity:1;fill-rule:nonzero;stroke:none"
             id="path68" /></g><g
           id="g70"
           transform="translate(476.9404,109.4004)"><path
             d="m 0,0 c -0.132,0 -0.263,0.051 -0.363,0.151 -0.201,0.201 -0.201,0.526 0,0.727 L 137.358,138.6 c 0.202,0.201 0.527,0.201 0.727,0 0.201,-0.201 0.201,-0.526 0,-0.727 L 0.363,0.151 C 0.263,0.051 0.131,0 0,0"
             style="fill:#ffffff;fill-opacity:1;fill-rule:nonzero;stroke:none"
             id="path72" /></g><g
           id="g74"
           transform="translate(436.5146,168.8403)"><path
             d="m 0,0 c -2.63,0 -5.261,1.003 -7.268,3.01 -4.013,4.014 -4.013,10.522 0,14.535 l 137.722,137.723 c 4.014,4.012 10.523,4.012 14.536,0 4.013,-4.014 4.013,-10.522 0,-14.536 L 7.268,3.01 C 5.261,1.003 2.63,0 0,0"
             style="fill:#ffffff;fill-opacity:1;fill-rule:nonzero;stroke:none"
             id="path76" /></g><g
           id="g78"
           transform="translate(-6.8003,-64.8076)"><path
             d="m 0,0 c -2.63,0 -5.261,1.004 -7.268,3.01 -4.013,4.013 -4.013,10.522 0,14.536 l 137.723,137.722 c 4.013,4.012 10.521,4.012 14.535,0 4.013,-4.014 4.013,-10.522 0,-14.536 L 7.268,3.01 C 5.261,1.004 2.63,0 0,0"
             style="fill:#ffffff;fill-opacity:1;fill-rule:nonzero;stroke:none"
             id="path80" /></g><g
           id="g82"
           transform="translate(403.626,-33.9746)"><path
             d="m 0,0 c -0.263,0 -0.526,0.101 -0.727,0.302 -0.401,0.401 -0.401,1.052 0,1.453 L 101.108,103.59 c 0.402,0.401 1.052,0.401 1.454,0 0.401,-0.402 0.401,-1.052 0,-1.453 L 0.727,0.302 C 0.525,0.101 0.263,0 0,0"
             style="fill:#ffffff;fill-opacity:1;fill-rule:nonzero;stroke:none"
             id="path84" /></g><g
           id="g86"
           transform="translate(371.7646,49.79)"><path
             d="m 0,0 c -0.921,0 -1.841,0.351 -2.544,1.054 -1.404,1.404 -1.404,3.682 0,5.087 l 71.602,71.6 c 1.406,1.405 3.683,1.405 5.088,0 1.404,-1.404 1.404,-3.682 0,-5.087 L 2.544,1.054 C 1.841,0.351 0.92,0 0,0"
             style="fill:#ffffff;fill-opacity:1;fill-rule:nonzero;stroke:none"
             id="path88" /></g><g
           id="g90"
           transform="translate(208.3481,241.127)"><path
             d="m 0,0 c -0.132,0 -0.263,0.05 -0.363,0.15 -0.201,0.201 -0.201,0.526 0,0.727 l 32.546,32.547 c 0.2,0.201 0.525,0.201 0.726,0 0.201,-0.201 0.201,-0.526 0,-0.727 L 0.363,0.15 C 0.263,0.05 0.131,0 0,0"
             style="fill:#ffffff;fill-opacity:1;fill-rule:nonzero;stroke:none"
             id="path92" /></g><g
           id="g94"
           transform="translate(3.4775,155.3076)"><path
             d="m 0,0 c -0.131,0 -0.263,0.05 -0.363,0.15 -0.201,0.201 -0.201,0.526 0,0.727 L 105.84,107.082 c 0.201,0.2 0.526,0.2 0.727,0 0.201,-0.201 0.201,-0.526 0,-0.727 L 0.363,0.15 C 0.263,0.05 0.131,0 0,0"
             style="fill:#ffffff;fill-opacity:1;fill-rule:nonzero;stroke:none"
             id="path96" /></g></g></g></g></svg>
